# xmcd CD database file
#
# Track frame offsets:
#	150
#	13005
#	26895
#	42507
#	52897
#	65630
#	88307
#	99865
#	116482
#	118642
#	141375
#
# Disc length: 2016 seconds
#
# Revision: 0
# Processed by: cddbd v1.4PL0 Copyright (c) Steve Scherf et al.
# Submitted via: Feurio! 1.66 - http://www.feurio.com
#
DISCID=9907de0b
DTITLE=Willie Nelson - The Electric Horseman
DYEAR=1979
DGENRE=Country
TTITLE0=Midnight Rider
TTITLE1=My Heroes Have Always Been Cowboys
TTITLE2=Mammas Don't Let Your Babies Grow Up To Be Cowboys
TTITLE3=So You Think You're A Cowboy
TTITLE4=Hands On The Wheel
TTITLE5=Electro-Phantasma
TTITLE6=Rising Star  (Love Theme)
TTITLE7=The Electric Horseman
TTITLE8=Interlude - Tumbleweed Morning
TTITLE9=Disco Magic
TTITLE10=Freedom Epilogue
EXTD=(c)1987 Columbia Pictures Industries Inc/Universal City Studios 
EXTD=Inc\r\n(p)1979 CBS Inc\r\nupc 07464363272\r\n\r\nSoundtrack Recording\r\n
EXTT0=
EXTT1=
EXTT2=
EXTT3=
EXTT4=
EXTT5=
EXTT6=
EXTT7=
EXTT8=
EXTT9=
EXTT10=
PLAYORDER=
